<svg xmlns="http://www.w3.org/2000/svg" xmlns:xlink="http://www.w3.org/1999/xlink" width="500" height="500" version="1.1" viewBox="0 0 500 500"><title>cat full</title><desc>Created with Sketch.</desc><defs><path id="path-1" d="M112.611426,65.6448111 C86.8305671,100.269858 61.287825,103.123179 35.9832002,74.2047754 C17.8495225,57.2354209 23.8549791,35.6210296 32.6267977,19.5078466 C37.3552924,11.2262693 36.1676243,5.28851268 29.0637936,1.69457662 C20.993487,-1.99157151 13.8406321,1.96479298 7.60522892,13.5636701 C-1.74787587,30.9619858 -4.21308957,58.389239 12.780777,82.0836544 C29.7746435,105.77807 65.7531067,128.563788 96.022009,113.905571 C116.201277,104.133427 127.625068,91.7058083 130.293382,76.6227158"/><circle id="path-3" cx="198.803" cy="120.916" r="120.695"/><ellipse id="path-5" cx="136.385" cy="119.003" rx="136.259" ry="118.929"/></defs><g id="cat-full" fill="none" fill-rule="evenodd" stroke="none" stroke-width="1"><g id="M-A-I-N-" transform="translate(35.500000, 2.000000)"><g id="torso" transform="translate(0.000000, 168.530972)"><g id="Group" transform="translate(0.000000, 45.614950)"><g id="TA-I.-L" transform="translate(0.000000, 24.744492)"><g id="Group-2"><mask id="mask-2" fill="#fff"><use xlink:href="#path-1"/></mask><use id="T-A-I-L" fill="#F7CD88" fill-rule="nonzero" stroke="#3C2E53" stroke-width="2" xlink:href="#path-1"/><ellipse id="Oval-5" cx="8.757" cy="15.136" fill="#FFF" fill-rule="nonzero" mask="url(#mask-2)" rx="43.029" ry="48.408"/></g><path id="T-A-I-L" fill-rule="nonzero" stroke="#3C2E53" stroke-width="9" d="M112.611426,65.6448111 C86.8305671,100.269858 61.287825,103.123179 35.9832002,74.2047754 C17.8495225,57.2354209 23.8549791,35.6210296 32.6267977,19.5078466 C37.3552924,11.2262693 36.1676243,5.28851268 29.0637936,1.69457662 C20.993487,-1.99157151 13.8406321,1.96479298 7.60522892,13.5636701 C-1.74787587,30.9619858 -4.21308957,58.389239 12.780777,82.0836544 C29.7746435,105.77807 65.7531067,128.563788 96.022009,113.905571 C116.201277,104.133427 127.625068,91.7058083 130.293382,76.6227158"/></g><rect id="Rectangle-7" width="30.443" height="112.916" x="128.002" y="164.859" fill="#F7CD88" fill-rule="nonzero" stroke="#3C2E53" stroke-width="9" rx="15.222"/><rect id="Rectangle-7" width="30.443" height="112.916" x="242.746" y="164.859" fill="#F7CD88" fill-rule="nonzero" stroke="#3C2E53" stroke-width="9" rx="15.222"/><mask id="mask-4" fill="#fff"><use xlink:href="#path-3"/></mask><use id="Oval-12" fill="#F7CD88" fill-rule="nonzero" xlink:href="#path-3"/><ellipse id="Oval-13" cx="211.978" cy="149.965" fill="#FFF" fill-rule="nonzero" mask="url(#mask-4)" rx="80.065" ry="84.068"/></g><circle id="Oval-12" cx="198.803" cy="166.531" r="116.195" fill-rule="nonzero" stroke="#3C2E53" stroke-width="9"/><path id="arm" fill="#F7CD88" fill-rule="nonzero" stroke="#3C2E53" stroke-width="9" d="M277.115099,73.9906694 C321.667725,63.7570559 351.947423,52.1603105 367.954196,39.2004331 C391.964354,19.7606171 401.989928,15.1931126 411.190312,21.259605 C422.945938,32.0229262 420.593674,42.831315 401.682616,58.4109922 C396.55907,62.6319718 390.762283,67.4243837 383.603927,72.4556416 C364.340719,85.9948061 335.217655,101.263581 282.821235,111.780841" transform="translate(347.741907, 65.267825) rotate(-17.000000) translate(-347.741907, -65.267825)"/><path id="Path-29" fill="#F7CD88" fill-rule="nonzero" stroke="#3C2E53" stroke-width="9" d="M47.0433334,169.207287 C75.031741,174.893828 95.4918464,166.539403 108.423649,144.144013 C121.355453,121.748622 134.335356,113.42119 147.36336,119.161717 C157.33073,128.182343 156.213697,141.564788 144.012262,159.309051 C125.710108,185.925446 89.8509458,216.817163 29.5832243,207.308382" transform="translate(91.834382, 163.236388) rotate(140.000000) translate(-91.834382, -163.236388)"/></g><g id="head" transform="translate(52.786481, 0.000000)"><g id="HEAD" transform="translate(5.667282, 59.471014)"><mask id="mask-6" fill="#fff"><use xlink:href="#path-5"/></mask><use id="head" fill="#F7CD88" fill-rule="nonzero" xlink:href="#path-5"/><ellipse id="Oval-4" cx="154.188" cy="206.182" fill="#FFF" fill-rule="nonzero" mask="url(#mask-6)" rx="107.573" ry="69.922"/></g><ellipse id="head-border" cx="142.052" cy="178.474" fill-rule="nonzero" stroke="#3C2E53" stroke-width="9" rx="131.759" ry="114.429"/><g id="mouth" fill="#3C2E53" fill-rule="nonzero" transform="translate(117.240244, 193.230898)"><g id="Group-10" transform="translate(46.718508, 15.962351)"><path id="Combined-Shape" d="M2.21529553,0.23091163 C4.2132032,6.89697408 13.6706522,11.945358 25.0361251,11.945358 C35.0349646,11.945358 43.5570506,8.03805994 46.8223297,2.5594468 C47.0777328,3.41160494 47.2112331,4.29019896 47.2112331,5.1880619 C47.2112331,13.109516 36.8198817,19.5311234 24.0015001,19.5311234 C11.1831185,19.5311234 0.791767024,13.109516 0.791767024,5.1880619 C0.791767024,3.44565208 1.29452947,1.77580901 2.21529553,0.23091163 Z"/></g><g id="Group-10" transform="translate(24.372246, 25.962351) scale(-1, 1) translate(-24.372246, -25.962351) translate(0.372246, 15.962351)"><path id="Combined-Shape" d="M2.21529553,0.23091163 C4.2132032,6.89697408 13.6706522,11.945358 25.0361251,11.945358 C35.0349646,11.945358 43.5570506,8.03805994 46.8223297,2.5594468 C47.0777328,3.41160494 47.2112331,4.29019896 47.2112331,5.1880619 C47.2112331,13.109516 36.8198817,19.5311234 24.0015001,19.5311234 C11.1831185,19.5311234 0.791767024,13.109516 0.791767024,5.1880619 C0.791767024,3.44565208 1.29452947,1.77580901 2.21529553,0.23091163 Z"/></g><polygon id="Path-24" points="37.488 0 57.574 0 47.531 20.905"/></g><g id="eyes" fill-rule="nonzero" transform="translate(98.311417, 139.030183)"><circle id="Oval" cx="21.771" cy="21.977" r="21.515" fill="#FFF"/><circle id="Oval-2" cx="104.244" cy="21.977" r="21.515" fill="#FFF"/><ellipse id="Oval" cx="22.997" cy="21.977" fill="#3C2E53" rx="7.172" ry="14.343"/><ellipse id="Oval-2" cx="105.469" cy="21.977" fill="#3C2E53" rx="7.172" ry="14.343"/></g><g id="hat" fill-rule="nonzero" transform="translate(52.326962, 0.513003)"><path id="Path-14" fill="#FFF" d="M130.423865,73.8064756 L107.681323,11.822446 C70.8155367,0.984098406 36.4703384,11.31477 4.64572805,42.8144608 C4.64572805,55.749032 4.64572805,55.749032 4.64572805,102.055613 C29.25853,108.120263 71.1845757,98.7038836 130.423865,73.8064756 Z" transform="translate(67.534797, 55.749032) rotate(1.000000) translate(-67.534797, -55.749032)"/><path id="Path-14" fill="#BB0048" d="M127.638801,65.6691258 L106.078122,6.63492531 C67.8846235,-5.52143725 32.875569,4.15022688 1.05095868,35.6499177 C1.05095868,48.5844888 1.05095868,48.5844888 1.05095868,94.8910702 C25.6637606,100.95572 67.8597081,91.2150716 127.638801,65.6691258 Z" transform="translate(64.344880, 49.096873) rotate(1.000000) translate(-64.344880, -49.096873)"/></g><g id="bow-1" fill="#BB0048" fill-rule="nonzero" transform="translate(99.023244, 258.906709)"><polygon id="Path-3" points=".773 .579 .773 62.063 120.123 .579 120.123 62.063"/><circle id="Oval" cx="60.448" cy="31.321" r="11.976" stroke="#BB0048"/></g><g id="whiskers" fill-rule="nonzero" stroke="#3C2E53" stroke-linecap="round" stroke-width="9" transform="translate(0.000000, 162.359442)"><path id="Path-26" d="M260.285617,6.64340189 L289.810195,0.169406214"/><path id="Path-26" d="M256.37948,34.7208561 L286.544801,36.6357287"/><path id="Path-26" d="M24.7788705,47.4971718 L0.984979814,49.7606782"/><path id="Path-27" d="M24.1262318,21.4086639 L3.88761473,19.6127342"/></g></g></g><g id="l-ear" fill-rule="nonzero" transform="translate(109.951131, 73.814075)"><path id="Path-18" stroke="#3C2E53" stroke-linecap="square" stroke-width="9" d="M-2.75907457,22.6436571 L38.8742532,-6.19663259 L38.8742532,66.9947505 L-2.75907457,22.6436571 Z" transform="translate(19.234549, 29.010442) scale(-1, 1) rotate(-5.000000) translate(-19.234549, -29.010442)"/><polygon id="Path-18" fill="#F7CD88" points="3.43 30.335 44.466 1.908 44.466 74.051" transform="translate(23.948033, 37.979698) scale(-1, 1) rotate(-5.000000) translate(-23.948033, -37.979698)"/></g><g id="r-ear-fill" fill-rule="nonzero" transform="translate(264.484736, 42.542187)"><polygon id="Path-18" stroke="#3C2E53" stroke-width="9" points="4.43 29.335 45.466 .908 45.466 44.365"/><polygon id="Path-18" fill="#F7CD88" points=".597 36.939 42.052 8.222 42.052 81.1"/></g><polygon id="Path-33" fill="#D67D54" fill-rule="nonzero" points="124.17 93.099 155.831 117.62 122.681 141.104"/><polygon id="Path-36" fill="#D67D54" fill-rule="nonzero" points="275.633 83.739 299.413 99.856 299.413 64.542"/></g></svg>